<?xml version="1.0" encoding="utf-8"?>
<!-- Generator: Adobe Illustrator 28.2.0, SVG Export Plug-In . SVG Version: 6.00 Build 0)  -->
<svg version="1.1" id="Layer_1" xmlns="http://www.w3.org/2000/svg" xmlns:xlink="http://www.w3.org/1999/xlink" x="0px" y="0px"
	 viewBox="0 0 1811.23 224.2" style="enable-background:new 0 0 1811.23 224.2;" xml:space="preserve">
<style type="text/css">
	.st0{fill:#4F2683;}
	.st1{fill:#807F83;}
	.st2{fill:#FFFFFF;}
</style>
<g>
	<g>
		<g>
			<path class="st0" d="M967.41,46.2h4.2l31.71,47.35h0.15V46.2h3.54v54.57h-3.17L971.09,51.8h-0.15v48.97h-3.54V46.2z"/>
			<path class="st0" d="M1018.31,81.38c0-13.42,8.18-20.13,16.44-20.13c9.14,0,15.34,7.67,15.34,19.84v0.52h-28.24
				c0,10.55,5.83,16.89,12.98,16.89c6.05,0,9.51-2.88,12.46-8.04l2.58,1.62c-3.17,5.83-7.74,9.51-15.27,9.51
				C1025.9,101.58,1018.31,94.14,1018.31,81.38z M1046.4,78.65c-0.52-7.96-4.28-14.31-11.72-14.31c-6.05,0-11.8,4.72-12.76,14.31
				H1046.4z"/>
			<path class="st0" d="M1062.79,92.14V65.23h-6.79v-3.17h6.79V47.97h3.54v14.09h10.1v3.17h-10.1v26.4c0,4.13,1.4,6.49,6.27,6.49
				c1.48,0,2.95-0.15,4.06-0.52v3.32c-1.26,0.22-2.73,0.37-4.35,0.37C1065.89,101.29,1062.79,98.71,1062.79,92.14z"/>
			<path class="st0" d="M1080.86,62.06h3.76l5.97,20.35l3.83,13.5h0.15c1.48-5.61,2.21-8.33,3.69-13.42l5.75-20.43h3.61l5.83,20.87
				c1.4,4.87,2.21,7.89,3.54,12.98h0.15c1.47-5.24,2.21-7.97,3.69-12.83l6.2-21.02h3.61l-12.02,38.72h-3.32L1105.86,67h-0.15
				l-9.59,33.78h-3.24L1080.86,62.06z"/>
			<path class="st0" d="M1135.97,81.45c0-12.46,7.45-20.21,17.03-20.21c9.51,0,17.04,7.74,17.04,20.21
				c0,12.32-7.52,20.13-17.04,20.13C1143.5,101.58,1135.97,93.77,1135.97,81.45z M1166.51,81.38c0-9-4.72-17.04-13.5-17.04
				c-8.33,0-13.49,7.37-13.49,17.04c0,9.07,4.65,17.11,13.49,17.11C1161.34,98.49,1166.51,91.19,1166.51,81.38z"/>
			<path class="st0" d="M1180.24,62.06h3.54v8.11h0.15c3.25-5.09,8.19-8.92,15.93-8.92h1.03l-0.59,3.32h-1.25
				c-6.56,0-12.09,3.83-15.27,10.69v25.52h-3.54V62.06z"/>
			<path class="st0" d="M1208.86,46.2h3.54v37.69l19.99-21.83h4.42l-12.68,13.5l14.38,25.22h-3.98l-12.9-22.49l-9.22,9.88v12.61
				h-3.54V46.2z"/>
			<path class="st0" d="M1265.59,65.23h-6.78v-3.17h6.78v-6.56c0-6.56,4.2-9.29,10.62-9.29h1.92v3.25
				c-0.59-0.07-1.62-0.07-2.36-0.07c-3.91,0-6.64,1.62-6.64,5.83v6.86h8.56v3.17h-8.56v35.55h-3.54V65.23z"/>
			<path class="st0" d="M1282.34,81.45c0-12.46,7.45-20.21,17.03-20.21c9.51,0,17.04,7.74,17.04,20.21
				c0,12.32-7.52,20.13-17.04,20.13C1289.86,101.58,1282.34,93.77,1282.34,81.45z M1312.87,81.38c0-9-4.72-17.04-13.5-17.04
				c-8.33,0-13.49,7.37-13.49,17.04c0,9.07,4.65,17.11,13.49,17.11C1307.71,98.49,1312.87,91.19,1312.87,81.38z"/>
			<path class="st0" d="M1326.6,62.06h3.54v8.11h0.15c3.25-5.09,8.19-8.92,15.93-8.92h1.03l-0.59,3.32h-1.25
				c-6.56,0-12.09,3.83-15.27,10.69v25.52h-3.54V62.06z"/>
			<path class="st0" d="M1372.27,46.2h31.56v3.39h-27.88v20.5h20.95v3.39h-20.95v23.89h29.5v3.39h-33.18V46.2z"/>
			<path class="st0" d="M1410.78,81.45c0-13.57,8.04-20.21,16.74-20.21c7.82,0,11.95,4.79,14.38,10.32l-3.03,1.62
				c-2.36-5.53-5.53-8.85-11.5-8.85c-5.98,0-13.05,4.43-13.05,17.04c0,10.84,5.83,17.11,12.9,17.11c5.9,0,9-3.02,11.95-8.92l2.8,1.4
				c-3.24,6.71-7.59,10.62-14.97,10.62C1418.15,101.58,1410.78,93.77,1410.78,81.45z"/>
			<path class="st0" d="M1448.84,81.45c0-12.46,7.45-20.21,17.03-20.21c9.51,0,17.04,7.74,17.04,20.21
				c0,12.32-7.52,20.13-17.04,20.13C1456.36,101.58,1448.84,93.77,1448.84,81.45z M1479.37,81.38c0-9-4.72-17.04-13.5-17.04
				c-8.33,0-13.49,7.37-13.49,17.04c0,9.07,4.65,17.11,13.49,17.11C1474.21,98.49,1479.37,91.19,1479.37,81.38z"/>
			<path class="st0" d="M1493.1,62.06h3.54v6.42c4.28-4.06,9.29-7.23,14.97-7.23c8.04,0,11.73,4.42,11.73,11.43v28.1h-3.54V73.12
				c0-5.9-2.58-8.78-8.48-8.78c-5.38,0-9.88,2.8-14.68,7.37v29.06h-3.54V62.06z"/>
			<path class="st0" d="M1533.16,81.45c0-12.46,7.45-20.21,17.03-20.21c9.51,0,17.04,7.74,17.04,20.21
				c0,12.32-7.52,20.13-17.04,20.13C1540.68,101.58,1533.16,93.77,1533.16,81.45z M1563.69,81.38c0-9-4.72-17.04-13.5-17.04
				c-8.33,0-13.49,7.37-13.49,17.04c0,9.07,4.65,17.11,13.49,17.11C1558.53,98.49,1563.69,91.19,1563.69,81.38z"/>
			<path class="st0" d="M1577.42,62.06h3.54v6.42c4.28-4.06,8.85-7.23,14.53-7.23c6.56,0,9.66,3.02,10.77,7.3
				c4.42-4.06,9.36-7.3,14.97-7.3c7.96,0,11.21,4.42,11.21,11.43v28.1h-3.54V73.12c0-5.9-2.14-8.78-8.04-8.78
				c-5.09,0-9.36,2.8-14.16,7.37v29.06h-3.54V73.12c0-5.9-2.07-8.78-8.04-8.78c-5.01,0-9.36,2.8-14.16,7.37v29.06h-3.54V62.06z"/>
			<path class="st0" d="M1644.78,47.67h3.83v4.5h-3.83V47.67z M1644.92,62.06h3.54v38.72h-3.54V62.06z"/>
			<path class="st0" d="M1659.09,81.45c0-13.57,8.04-20.21,16.74-20.21c7.82,0,11.95,4.79,14.38,10.32l-3.03,1.62
				c-2.36-5.53-5.53-8.85-11.5-8.85c-5.98,0-13.05,4.43-13.05,17.04c0,10.84,5.83,17.11,12.9,17.11c5.9,0,9-3.02,11.95-8.92l2.8,1.4
				c-3.24,6.71-7.59,10.62-14.97,10.62C1666.46,101.58,1659.09,93.77,1659.09,81.45z"/>
			<path class="st0" d="M964.01,180.37c0-7.37,6.27-12.91,26.62-16.3v-2.36c0-5.9-3.1-8.85-8.41-8.85c-6.42,0-10.69,2.51-15.04,6.42
				l-2.06-2.21c4.79-4.42,9.73-7.3,17.18-7.3c8.04,0,11.87,4.57,11.87,11.72v18.22c0,4.72,0.3,7.6,1.11,9.59h-3.76
				c-0.52-1.62-0.89-3.54-0.89-5.75c-4.72,4.06-9.88,6.42-15.71,6.42C967.85,189.96,964.01,186.28,964.01,180.37z M990.64,180.08
				v-13.35c-18.88,3.32-23.08,7.96-23.08,13.42c0,4.35,2.88,6.71,7.67,6.71C980.98,186.87,986.21,184.36,990.64,180.08z"/>
			<path class="st0" d="M1006.14,150.58h3.54V157c4.28-4.06,9.29-7.23,14.97-7.23c8.04,0,11.73,4.42,11.73,11.43v28.1h-3.54v-27.66
				c0-5.9-2.58-8.78-8.48-8.78c-5.38,0-9.88,2.8-14.68,7.37v29.06h-3.54V150.58z"/>
			<path class="st0" d="M1046.27,169.98c0-13.57,7.38-20.21,16.37-20.21c5.31,0,9.96,3.02,13.05,6.49v-21.53h3.54v44.99
				c0,4.72,0.3,7.6,1.18,9.59h-3.83c-0.44-1.4-0.89-3.76-0.89-5.83c-3.32,3.47-7.37,6.49-13.2,6.49
				C1053.57,189.96,1046.27,183.55,1046.27,169.98z M1075.69,179.93V159.8c-4.35-4.43-8.26-6.93-13.27-6.93
				c-6.78,0-12.61,5.16-12.61,17.04c0,11.72,5.97,16.96,12.76,16.96C1067.8,186.87,1071.34,184.36,1075.69,179.93z"/>
			<path class="st0" d="M1106.02,175.66l3.61-0.88c2.14,8.11,7.89,12.24,15.86,12.24c8.85,0,14.45-4.35,14.45-10.91
				c0-6.05-2.51-9.22-15.12-13.27c-12.17-3.91-17.19-7.23-17.19-15.64c0-7.3,6.79-13.49,16.37-13.49c10.03,0,15.78,5.24,18.07,12.83
				l-3.54,1.03c-2.58-7.67-7.45-10.55-14.6-10.55c-7.82,0-12.61,4.57-12.61,9.96c0,6.56,3.54,8.78,16,12.83
				c11.73,3.83,16.3,7.74,16.3,16.08c0,9.07-8.19,14.45-18.29,14.45C1115.31,190.33,1108.31,184.73,1106.02,175.66z"/>
			<path class="st0" d="M1151.76,169.98c0-12.46,7.45-20.21,17.03-20.21c9.51,0,17.04,7.74,17.04,20.21
				c0,12.32-7.52,20.13-17.04,20.13C1159.28,190.11,1151.76,182.29,1151.76,169.98z M1182.29,169.9c0-9-4.72-17.04-13.5-17.04
				c-8.33,0-13.49,7.37-13.49,17.04c0,9.07,4.65,17.11,13.49,17.11C1177.13,187.01,1182.29,179.71,1182.29,169.9z"/>
			<path class="st0" d="M1193.81,169.98c0-13.57,8.04-20.21,16.74-20.21c7.82,0,11.95,4.79,14.38,10.32l-3.03,1.62
				c-2.36-5.53-5.53-8.85-11.5-8.85c-5.98,0-13.05,4.43-13.05,17.04c0,10.84,5.83,17.11,12.9,17.11c5.9,0,9-3.02,11.95-8.92l2.8,1.4
				c-3.24,6.71-7.59,10.62-14.97,10.62C1201.19,190.11,1193.81,182.29,1193.81,169.98z"/>
			<path class="st0" d="M1235.12,136.2h3.83v4.5h-3.83V136.2z M1235.27,150.58h3.54v38.72h-3.54V150.58z"/>
			<path class="st0" d="M1249.36,180.37c0-7.37,6.27-12.91,26.62-16.3v-2.36c0-5.9-3.1-8.85-8.41-8.85
				c-6.42,0-10.69,2.51-15.04,6.42l-2.07-2.21c4.79-4.42,9.73-7.3,17.18-7.3c8.04,0,11.87,4.57,11.87,11.72v18.22
				c0,4.72,0.3,7.6,1.11,9.59h-3.76c-0.52-1.62-0.89-3.54-0.89-5.75c-4.72,4.06-9.88,6.42-15.71,6.42
				C1253.19,189.96,1249.36,186.28,1249.36,180.37z M1275.98,180.08v-13.35c-18.88,3.32-23.08,7.96-23.08,13.42
				c0,4.35,2.88,6.71,7.67,6.71C1266.32,186.87,1271.56,184.36,1275.98,180.08z"/>
			<path class="st0" d="M1291.92,134.73h3.54v54.57h-3.54V134.73z"/>
			<path class="st0" d="M1336.48,138.12h-17.92v-3.39h39.53v3.39h-17.92v51.18h-3.69V138.12z"/>
			<path class="st0" d="M1356.69,150.58h3.54v8.11h0.15c3.25-5.09,8.19-8.92,15.93-8.92h1.03l-0.59,3.32h-1.25
				c-6.56,0-12.09,3.83-15.27,10.69v25.52h-3.54V150.58z"/>
			<path class="st0" d="M1380.89,169.9c0-13.42,8.18-20.13,16.44-20.13c9.14,0,15.34,7.67,15.34,19.84v0.52h-28.24
				c0,10.55,5.83,16.89,12.98,16.89c6.05,0,9.51-2.88,12.46-8.04l2.58,1.62c-3.17,5.83-7.74,9.51-15.27,9.51
				C1388.48,190.11,1380.89,182.66,1380.89,169.9z M1408.98,167.17c-0.52-7.96-4.28-14.31-11.72-14.31
				c-6.05,0-11.8,4.72-12.76,14.31H1408.98z"/>
			<path class="st0" d="M1422.86,150.58h3.54V157c4.28-4.06,9.29-7.23,14.97-7.23c8.04,0,11.73,4.42,11.73,11.43v28.1h-3.54v-27.66
				c0-5.9-2.58-8.78-8.48-8.78c-5.38,0-9.88,2.8-14.68,7.37v29.06h-3.54V150.58z"/>
			<path class="st0" d="M1462.99,169.98c0-13.57,7.38-20.21,16.37-20.21c5.31,0,9.96,3.02,13.05,6.49v-21.53h3.54v44.99
				c0,4.72,0.3,7.6,1.18,9.59h-3.83c-0.44-1.4-0.89-3.76-0.89-5.83c-3.32,3.47-7.37,6.49-13.2,6.49
				C1470.3,189.96,1462.99,183.55,1462.99,169.98z M1492.42,179.93V159.8c-4.35-4.43-8.26-6.93-13.27-6.93
				c-6.78,0-12.61,5.16-12.61,17.04c0,11.72,5.97,16.96,12.76,16.96C1484.53,186.87,1488.07,184.36,1492.42,179.93z"/>
			<path class="st0" d="M1505.71,182.81l2.58-1.99c2.95,3.76,6.49,6.05,12.02,6.05c7.3,0,11.06-2.95,11.06-7.67
				c0-4.72-2.8-6.71-11.51-8.78c-9.81-2.43-13.05-5.01-13.05-10.99c0-4.94,4.42-9.66,12.76-9.66c6.27,0,10.47,2.29,13.72,5.68
				l-2.36,2.43c-2.95-3.17-6.27-5.01-11.43-5.01c-6.42,0-9.14,3.17-9.14,6.42c0,4.06,2.21,5.83,9.81,7.67
				c10.92,2.73,14.75,5.31,14.75,12.24c0,6.64-5.97,10.77-14.68,10.77C1513.38,189.96,1508.51,186.87,1505.71,182.81z"/>
			<path class="st1" d="M1559.93,169.39c0-13.79,6.27-24.93,18.29-35.03l1.55,1.84c-9.59,8.48-15.78,19.99-15.78,33.18
				c0,13.2,6.19,24.71,15.78,33.19l-1.55,1.84C1566.2,194.31,1559.93,183.18,1559.93,169.39z"/>
			<path class="st1" d="M1591.51,134.73h4.2l31.71,47.35h0.15v-47.35h3.54v54.57h-3.17l-32.74-48.97h-0.15v48.97h-3.54V134.73z"/>
			<path class="st1" d="M1645.73,134.73h31.56v3.39h-27.88v20.5h20.95v3.39h-20.95v23.89h29.5v3.39h-33.18V134.73z"/>
			<path class="st1" d="M1685.64,175.66l3.61-0.88c2.14,8.11,7.89,12.24,15.86,12.24c8.85,0,14.45-4.35,14.45-10.91
				c0-6.05-2.51-9.22-15.12-13.27c-12.17-3.91-17.19-7.23-17.19-15.64c0-7.3,6.79-13.49,16.37-13.49c10.03,0,15.78,5.24,18.07,12.83
				l-3.54,1.03c-2.58-7.67-7.45-10.55-14.6-10.55c-7.82,0-12.61,4.57-12.61,9.96c0,6.56,3.54,8.78,16,12.83
				c11.73,3.83,16.3,7.74,16.3,16.08c0,9.07-8.19,14.45-18.29,14.45C1694.93,190.33,1687.93,184.73,1685.64,175.66z"/>
			<path class="st1" d="M1745.1,138.12h-17.92v-3.39h39.53v3.39h-17.92v51.18h-3.69V138.12z"/>
			<path class="st1" d="M1773.87,202.57c9.59-8.48,15.78-19.99,15.78-33.19c0-13.2-6.19-24.71-15.78-33.18l1.55-1.84
				c12.02,10.1,18.29,21.24,18.29,35.03c0,13.79-6.27,24.93-18.29,35.03L1773.87,202.57z"/>
		</g>
		<g>
			<rect x="890.33" y="14.96" class="st1" width="2.78" height="174.96"/>
		</g>
	</g>
	<g>
		<path class="st0" d="M364.05,46.16c-0.93,1.04-2.17,1.62-3.68,1.62c-3.37,0-5.45-1.4-10.61-1.4c-8.83,0-15.67,4.8-15.67,13.51
			c0,17.83,27.33,14.02,27.33,26.84c0,5.8-4.22,8.56-9.47,8.56c-9.79,0-15.55-6.37-17.69-15.72h-2.44l3.28,17.94
			c1.06-1.24,2.45-1.69,3.85-1.69c2.82,0,6.4,2.16,12.76,2.16c10.2,0,17.92-5.68,17.92-15.35c0-19.34-27.76-14.24-27.76-26.74
			c0-3.98,2.83-6.92,7.95-6.92c8.11,0,12.65,5.73,14.6,12.53h2.4L364.05,46.16z M502.59,94.34v2.5h26.73v-2.5h-7.91V68.31
			c0-9.31,4.8-18.32,13.85-18.32c5.09,0,8.17,2.88,8.17,10.41v33.94h-7.91v2.5h26.03v-2.5h-7.91V60.7c0-10.01-4.9-14.32-14.72-14.32
			c-8.21,0-14.22,4.01-17.32,10.82h-0.2V46.18c-1.35,1.11-3.17,2.41-7.62,2.41c-2.9,0-10.6,0-10.6,0v2.5h8.01v43.25H502.59z
			 M405.03,88.25c-1.31,2.91-3.38,5.78-7.09,5.78c-3.81,0-5.39-2.39-5.39-8.3V51.09h12.32v-2.5h-12.32V32.05h-2.11
			c-1.37,10.68-6.73,16.14-16.43,17.07v1.97l0,0h0h8.11v34.24c0,6.41,1.25,12.51,11.66,12.51c6.56,0,10.55-3.03,12.62-6.96l0.8-1.6
			L405.03,88.25z M499.96,53.35c0-3.97-2.94-6.97-8.38-6.97c-8.14,0-12.19,7.31-14.29,13.11h-0.13V45.98
			c-1.62,1.33-3.26,2.61-7.58,2.61c-3.14,0-11.24,0-11.24,0v2.5h8.61v43.25h-8.61v2.5h27.13v-2.5h-8.31V73.01
			c0-11.34,5.57-23.66,12.73-23.66c0.53,0,0.89,0.06,1.19,0.2c-1.23,0.99-2.01,2.5-2.01,4.2c0,3.15,2.41,5.39,5.39,5.39
			C497.7,59.14,499.96,56.44,499.96,53.35z M322.73,83c-2.82,6.64-7.54,11.93-16.17,11.93c-12.92,0-14.82-9.84-14.82-24.93v-0.8
			h33.23c0-13.41-7.43-22.63-21.32-22.63c-15.15,0-23.33,11.68-23.33,25.73c0,14.65,7.67,25.73,23.23,25.73
			c9.62,0,17.44-3.64,21.52-14.27L322.73,83z M291.83,63.84c0.54-7.46,3.27-14.69,11.12-14.69c8.36,0,10.2,6.53,10.39,13.45
			c0.02,0.64,0.02,2.88,0.02,3.5h-21.62C291.74,65.43,291.78,64.54,291.83,63.84z M452.15,83c-2.82,6.64-7.54,11.93-16.18,11.93
			c-12.91,0-14.82-9.84-14.82-24.93v-0.8h33.23c0-13.41-7.43-22.63-21.32-22.63c-15.15,0-23.33,11.68-23.33,25.73
			c0,14.65,7.67,25.73,23.23,25.73c9.62,0,17.44-3.64,21.52-14.27L452.15,83z M421.25,63.84c0.54-7.46,3.27-14.69,11.12-14.69
			c8.36,0,10.2,6.53,10.39,13.45c0.02,0.64,0.02,2.88,0.02,3.5h-21.62C421.16,65.43,421.2,64.54,421.25,63.84z M236.93,45.94
			c-4.39,12.68-18.1,51.96-18.1,51.96h-2.05l-22.4-60.96l-3.68-9.71h-6.96v-2.45h28.74v2.45h-9l2.76,8.18l15.65,43.16h0.21
			l12.99-37.53l-5.12-13.8h-8.69v-2.45h31.3v2.45h-10.12l2.76,7.98l15.85,43.36h0.2l14.11-43.16l2.35-8.18h-9v-2.45h20.35v2.45
			h-7.26l-3.17,9L258.42,97.9h-2.15L236.93,45.94z"/>
		<g>
			<path class="st1" d="M221.93,156.68c-8.67-3.57-19.28-7.86-19.28-21.32c0-11.12,7.96-18.97,20.91-18.97
				c6.43,0,9.49,2.35,13.77,2.35c1.94,0,3.57-1.02,4.79-2.55l3.47,19.89h-2.86c-2.55-8.67-9.18-16.83-19.18-16.83
				c-7.55,0-13.16,3.77-13.16,11.32c0,6.63,5.31,9.9,8.06,11.22c2.14,1.02,12.96,5.3,15.4,6.43c5.81,2.75,15.91,7.45,15.91,19.99
				c0,11.73-7.45,22.14-24.48,22.14c-6.83,0-12.34-3.06-16.83-3.06c-2.04,0-3.88,1.02-5.1,2.65l-3.98-23.16h2.96
				c2.96,10.2,10.51,20.61,23.16,20.61c10.81,0,16.12-5.92,16.12-12.85C241.62,165.15,233.87,161.47,221.93,156.68z"/>
			<path class="st1" d="M303.03,164.53c0,15.3-10.1,25.71-23.46,25.71c-12.95,0-23.36-10.1-23.36-25.4
				c0-17.44,11.63-26.12,23.77-26.22C293.24,138.52,303.03,149.13,303.03,164.53z M267.73,165.15c0,14.08,1.84,22.44,11.83,22.44
				c11.63,0,12.04-10,12.04-22.95c0-6.12-0.3-10-0.51-11.32c-0.41-3.77-1.43-12.24-11.42-12.04
				C269.06,141.48,267.73,151.37,267.73,165.15z"/>
			<path class="st1" d="M355.36,173.72c-3.37,10.41-9.39,16.73-21.63,16.73c-14.69,0-23.56-10.92-23.56-25.4
				c0-14.38,9.9-25.91,24.99-25.91c10.81,0,18.36,5.41,18.36,12.65c0,3.26-2.35,6.02-5.61,6.02c-3.16,0-5.71-2.55-5.71-5.71
				c0-2.55,1.84-4.69,4.18-5.41c-2.35-3.77-7.24-4.9-10.61-4.9c-12.24,0-14.28,15.3-14.28,22.75c0,10.51,2.65,22.75,14.59,22.75
				c9.28,0,14.28-5.92,16.83-14.38L355.36,173.72z"/>
			<path class="st1" d="M376.97,150.97v27.24l0.1,8.67h8.16v2.45H358.1v-2.45h8.77l0.1-8.67v-27.24l-0.1-7.45H358v-2.55
				c7.75,0,11.53,0,11.53,0c4.49,0,6.32-1.33,7.65-2.35L376.97,150.97z M371.67,129.85c3.16,0,5.92-2.65,5.92-5.92
				c0-3.26-2.75-6.02-5.92-6.02c-3.37,0-6.02,2.75-6.02,6.02C365.65,127.3,368.4,129.85,371.67,129.85z"/>
			<path class="st1" d="M441.36,181.88c-1.22,3.26-3.78,8.16-11.33,8.16c-5.81,0-8.87-1.63-10.2-6.73
				c-3.67,5.1-8.98,7.04-15.61,7.04c-9.79,0-13.67-5.3-13.67-13.26c0-11.42,12.96-14.59,18.36-16.22c3.98-1.12,7.14-1.63,11.02-2.86
				v-5.31c0-6.94-2.04-11.22-9.39-11.22c-2.96,0-7.45,0.92-10,3.77c2.35,0.61,4.08,2.75,4.08,5.3c0,2.96-2.45,5.41-5.51,5.41
				c-3.16,0-5.41-2.75-5.41-5.81c0-6.83,8.67-11.12,17.75-11.12c15.3,0,18.57,6.22,18.57,14.59v25.61c0,5.61,1.33,7.04,3.88,7.04
				c2.75,0,4.59-2.96,5.31-5.41L441.36,181.88z M419.94,160.76l-7.34,2.04c-6.02,1.63-10.91,4.29-10.91,13.47
				c0,6.43,1.32,10.71,6.73,10.71c7.55,0,11.53-6.32,11.53-13.16V160.76z"/>
			<path class="st1" d="M464.43,128.22v49.17l0.1,9.49h7.96v2.45h-27.13v-2.45h8.88l0.1-9.49v-49.17l-0.1-8.47h-8.47v-2.45h11.32
				c4.39,0,5.92-1.33,7.55-2.75L464.43,128.22z"/>
			<path class="st1" d="M499.45,156.68c-8.67-3.57-19.28-7.86-19.28-21.32c0-11.12,7.96-18.97,20.91-18.97
				c6.43,0,9.49,2.35,13.77,2.35c1.94,0,3.57-1.02,4.79-2.55l3.47,19.89h-2.86c-2.55-8.67-9.18-16.83-19.18-16.83
				c-7.55,0-13.16,3.77-13.16,11.32c0,6.63,5.31,9.9,8.06,11.22c2.14,1.02,12.96,5.3,15.4,6.43c5.81,2.75,15.91,7.45,15.91,19.99
				c0,11.73-7.45,22.14-24.48,22.14c-6.83,0-12.34-3.06-16.83-3.06c-2.04,0-3.88,1.02-5.1,2.65l-3.98-23.16h2.96
				c2.96,10.2,10.51,20.61,23.16,20.61c10.81,0,16.12-5.92,16.12-12.85C519.14,165.15,511.38,161.47,499.45,156.68z"/>
			<path class="st1" d="M579.84,173.72c-3.37,10.41-9.38,16.73-21.63,16.73c-14.69,0-23.56-10.92-23.56-25.4
				c0-14.38,9.9-25.91,24.99-25.91c10.81,0,18.36,5.41,18.36,12.65c0,3.26-2.35,6.02-5.61,6.02c-3.16,0-5.71-2.55-5.71-5.71
				c0-2.55,1.84-4.69,4.18-5.41c-2.35-3.77-7.24-4.9-10.61-4.9c-12.24,0-14.28,15.3-14.28,22.75c0,10.51,2.65,22.75,14.59,22.75
				c9.28,0,14.28-5.92,16.83-14.38L579.84,173.72z"/>
			<path class="st1" d="M601.45,150.97v27.24l0.1,8.67h8.16v2.45h-27.13v-2.45h8.77l0.1-8.67v-27.24l-0.1-7.45h-8.88v-2.55
				c7.75,0,11.53,0,11.53,0c4.49,0,6.32-1.33,7.65-2.35L601.45,150.97z M596.15,129.85c3.16,0,5.92-2.65,5.92-5.92
				c0-3.26-2.75-6.02-5.92-6.02c-3.37,0-6.02,2.75-6.02,6.02C590.13,127.3,592.89,129.85,596.15,129.85z"/>
			<path class="st1" d="M658.13,176.06c-4.08,10.61-11.93,14.28-21.53,14.28c-15.61,0-23.26-11.12-23.26-25.71
				c0-14.08,8.16-25.81,23.36-25.81c13.87,0,21.32,9.18,21.32,22.65h-33.26v0.82c0,15.1,1.94,24.99,14.79,24.99
				c8.67,0,13.36-5.31,16.22-12.04L658.13,176.06z M624.77,158.62h21.63c0-0.61,0-3.06,0-3.77c-0.2-6.94-2.04-13.47-10.41-13.47
				c-7.86,0-10.61,7.24-11.12,14.69C624.77,156.78,624.77,157.9,624.77,158.62z"/>
			<path class="st1" d="M669.59,186.88l0.1-8.77l0.1-27.95l-0.1-6.63h-8.06v-2.55c7.75,0,10.61,0,10.61,0
				c4.49,0,6.32-1.33,7.65-2.35v11.22h0.2c3.06-6.73,9.08-10.71,17.24-10.71c9.79,0,14.69,4.28,14.69,14.28v24.69l0.1,8.77h7.86
				v2.35h-26.01v-2.35h7.65l0.2-8.77v-24.18c0-5.51-1.02-11.22-7.96-11.22c-9.28,0-13.98,8.98-13.98,18.26v17.14l0.1,8.77h7.75v2.35
				h-26.62v-2.35H669.59z"/>
			<path class="st1" d="M768.34,173.72c-3.37,10.41-9.39,16.73-21.63,16.73c-14.69,0-23.56-10.92-23.56-25.4
				c0-14.38,9.9-25.91,24.99-25.91c10.81,0,18.36,5.41,18.36,12.65c0,3.26-2.35,6.02-5.61,6.02c-3.16,0-5.71-2.55-5.71-5.71
				c0-2.55,1.84-4.69,4.18-5.41c-2.35-3.77-7.24-4.9-10.61-4.9c-12.24,0-14.28,15.3-14.28,22.75c0,10.51,2.65,22.75,14.59,22.75
				c9.28,0,14.28-5.92,16.83-14.38L768.34,173.72z"/>
			<path class="st1" d="M818.42,176.06c-4.08,10.61-11.93,14.28-21.52,14.28c-15.61,0-23.26-11.12-23.26-25.71
				c0-14.08,8.16-25.81,23.36-25.81c13.87,0,21.32,9.18,21.32,22.65h-33.26v0.82c0,15.1,1.94,24.99,14.79,24.99
				c8.67,0,13.36-5.31,16.22-12.04L818.42,176.06z M785.06,158.62h21.63c0-0.61,0-3.06,0-3.77c-0.2-6.94-2.04-13.47-10.41-13.47
				c-7.86,0-10.61,7.24-11.12,14.69C785.06,156.78,785.06,157.9,785.06,158.62z"/>
		</g>
		<g>
			<path class="st2" d="M154.71,87.35l-0.01-62.92c-16.28-5.76-41.84-9.48-70.66-9.48c-28.27,0-53.43,3.7-69.7,9.48l-0.01,63.83
				c0,9.41-0.42,26.06,8.13,46c10.62,24.76,31.19,43.38,60.54,55.05l1.52,0.62l1.51-0.61c29.37-11.68,49.93-30.29,60.56-55.06
				C155.14,114.33,154.71,96.37,154.71,87.35z"/>
			<path class="st0" d="M154.71,87.35l-0.01-62.92c-16.28-5.75-41.84-9.48-70.66-9.48c-28.27,0-53.43,3.7-69.7,9.48l-0.01,63.83
				c0,9.41-0.42,26.06,8.13,46c10.62,24.76,31.19,43.38,60.54,55.05l1.52,0.62l1.51-0.61c29.37-11.68,49.93-30.3,60.56-55.06
				C155.14,114.33,154.71,96.37,154.71,87.35z M99.87,156.19c-0.32,0.1-0.69,0.24-1,0.38c-0.2,0.1-0.31,0.16-0.34,0.32
				c-0.02,0.11,0.1,0.28,0.17,0.35c-0.18,0.67-1.78,0.59-2.3,0.77c-0.45,0.16-0.97,0.65-1.27,0.97c-0.3,0.33-0.2,0.25-0.68,0.34
				c-0.86,0.18-0.67,0.97-0.41,1.59c0.26,0.63,0.7,1.13,1.27,1.5c0.2,0.13,1.12,0.49,1.6,0.49c-0.47,0.51-1.14,0.38-1.73,0.63
				c-0.34,0.14-0.63,0.33-1,0.41c-0.5,0.1-0.75,0.07-1.16,0c-0.64-0.12-1.16-0.09-1.69-0.04c-0.4,0.04-0.75,0-1.1-0.2
				c-0.15-0.08-0.46-0.31-0.62-0.34c-0.49-0.08-0.1,0.65,0.01,0.9c-0.67,0.64-2.18-0.24-2.79-0.61c-0.53-0.32-0.81-1.07-1.42-1.26
				c-0.04,0.64-0.01,1.28,0.02,1.92c0.08,1.96,0.12,3.91,0.18,5.86c0.03,1.15,0.06,2.3,0.1,3.44h-2.15l0.26-11.31
				c-0.69,0.04-0.96,0.68-1.53,0.92c-0.34,0.15-0.7,0.08-1.03,0.28c-0.34,0.22-0.48,0.51-0.88,0.7c-0.34,0.15-0.75,0.21-1.11,0.2
				c-0.46,0-0.98-0.09-1.23-0.35c0.23-0.41,0-0.84-0.29-0.99c-0.33-0.17-0.8,0.09-1.09,0.17c-1.49,0.37-3.25-0.55-4.61-1.06
				c0,0,3.29-0.56,3.29-2.48c0-0.54-0.25-0.97-0.66-1.31c-0.38-0.31-1.11-0.69-1.61-0.76c-0.82-0.12-1.38,0.09-1.89-0.11
				c0.07-0.26-0.37-0.63-0.72-0.87c-0.32-0.23-0.73-0.35-1.09-0.54c-0.66-0.34-1.65-0.96-1.37-1.81c0.53,0.27,1.04,0.33,1.52,0.08
				c0.38-0.2,0.51-0.5,0.51-0.95c-0.01-0.61-0.68-1.01-0.91-1.47c-0.19-0.37-0.35-0.71-0.7-0.98c-0.31-0.24-0.83-0.32-0.84-0.78
				c0.63,0.25,0.81-0.31,0.43-0.73c-0.42-0.47-0.97-0.69-1.29-1.27c-0.28-0.52-0.49-1.13-0.5-1.73c0-0.18,0.03-0.68,0.28-0.73
				c0.23-0.05,0.32,0.26,0.41,0.42c0.39,0.58,0.97,0.86,1.56,1.15c0.74,0.36,1.02,0.56,1.83,0.71c1.6,0.29,2.61,0.05,3.52-0.8
				c0.16-0.14,0.56-0.43,0.74-0.44c0.32,0.45,1.16,1.33,1.98,1.57c0.62,0.17,1.31,1.04,1.63,1.32c1.09,0.96,1.78,0.41,1.77-0.51
				c-0.01-0.77-0.29-1.77-0.45-2.5c-0.27-1.19-0.51-1.78-0.67-3.02c-0.1-0.75-0.52-1.39-0.8-1.92c-0.28-0.53-0.67-1.9,0.32-1.42
				c0.41,0.2,1.03,0.57,1.53,0.5c1.17-0.17,1.32-1.44,1.54-2.39c0.12-0.49,0.12-0.9,0.31-1.39c0.1-0.29,0.24-0.45,0.39-0.46
				c0.04,0.15,0.21,0.41,0.46,0.41c0.45,0,0.84-0.77,0.95-1.23c0.09-0.39,0.18-0.85,0.29-1.19c0.2-0.59,0.26-1.3,0.57-1.96
				c0.12,0.44,0.31,1.23,0.43,1.5c0.27,0.7,0.51,1.41,0.92,1.99c0.35,0.5,0.8,0.65,1.36,0.36c0.28,0.66,0.28,2.83,0.84,3.85
				c0.34,0.6,0.75,0.82,1.27,0.82c0.46,0,0.78-0.14,1.11-0.34c0.4-0.24,0.85-0.54,1.14-0.54c0.14,0,0.22,0.07,0.22,0.2
				c0,0.46-0.7,1.69-0.8,1.95c-0.21,0.59-0.56,1.26-0.74,1.86c-0.14,0.5-0.3,1.13-0.41,1.65c-0.12,0.59-0.22,1.26-0.26,2.19
				c-0.02,0.55,0.01,1.53,0.43,1.82c0.6,0.41,1.36-0.4,1.84-0.78c0.59-0.46,1.09-0.9,1.53-1.5c0.33-0.45,0.98-1.61,1.6-1.56
				c-0.01,0.47,0.65,1.13,1.64,1.28c0.61,0.09,1.1-0.03,1.46-0.3c0.46-0.33,0.49-0.31,1.01-0.12c1.12,0.43,2.99-1.04,3.65-1.57
				c0.23,0.24,0.02,0.67-0.28,1.12c-0.53,0.81-1.14,1.06-1.15,1.66c-0.01,0.53-0.66,1.52-0.61,2.11c-0.19,0.34-0.82,0.71-1.1,0.94
				c-0.83,0.7-1.33,1.5-1.03,2.6c0.26,0.95,1.04,1.41,1.77,1.41c0.74,0,1.22-0.49,1.47-0.38c0.14,0.09-0.22,0.54-0.36,0.66
				C100.97,155.79,100.32,156.05,99.87,156.19z M141.77,67.13H27.33l-7.31-7.68l14.6,4.86c-1.2-3.64-4.54-4.9-6.69-8.01
				c-1.28-1.85-1.71-3.67-1.57-5.56c0.39,0.67,1.1,1.6,2.2,2.36c1.05,0.73,2.47,1.29,4.4,1.71c3.45,0.74,5.23,1.84,6.75,3.24
				l-7.48-13.37l12.87,8.3c-0.53-3.83-3.18-5.81-4.49-9.35c-0.78-2.11-0.76-4-0.15-5.79c0.21,0.75,0.66,1.82,1.54,2.83
				c0.85,0.97,2.07,1.87,3.84,2.76c3.26,1.63,4.72,3.17,5.85,4.98l-3.97-14.99L58.08,44.6c0.42-3.76-1.62-6.35-2.01-10.08
				c-0.23-2.23,0.24-4.08,1.28-5.67c0.02,0.78,0.19,1.93,0.79,3.13c0.57,1.14,1.53,2.32,3.03,3.62c2.86,2.48,3.84,4.39,4.49,6.5
				l-0.11-15.73l7.21,13.33c1.41-3.38-0.08-6.49,0.46-10.18c0.33-2.22,1.3-3.91,2.7-5.19c-0.17,0.76-0.29,1.91-0.01,3.23
				c0.27,1.25,0.91,2.63,2.04,4.26c2.2,3.18,2.65,5.29,2.74,7.56l0.03,0l3.83-15.41l3.68,14.79c2.23-3.05,1.65-6.5,3.12-9.96
				c0.88-2.07,2.22-3.3,3.9-4.19c-0.36,0.69-0.76,1.78-0.82,3.12c-0.05,1.28,0.23,2.78,0.91,4.64c1.3,3.53,1.22,5.66,0.77,7.82
				l7.46-13.8l-0.11,15.17c2.9-2.28,3.1-5.88,5.36-8.85c1.37-1.79,3.01-2.64,4.86-3.08c-0.52,0.58-1.19,1.53-1.58,2.81
				c-0.37,1.23-0.47,2.75-0.27,4.72c0.39,3.83-0.23,5.9-1.25,7.92l0.01,0l10.79-11.65l-3.87,14.63c3.24-1.55,4.42-4.65,7.33-6.95
				c1.76-1.39,3.55-2.07,5.44-2.05c-0.65,0.43-1.53,1.19-2.22,2.34c-0.66,1.09-1.14,2.55-1.44,4.5c-0.58,3.8-1.67,5.65-3.14,7.35
				l0.06,0.04l13.34-8.61l-7.37,13.18c3.6-0.51,5.33-3.38,8.7-4.87c2.05-0.9,4-1.14,5.83-0.65c-0.74,0.26-1.78,0.77-2.73,1.71
				c-0.91,0.9-1.74,2.19-2.51,4c-1.5,3.51-3.01,5.03-4.86,6.3l0.08,0.09l15.07-5.01L141.77,67.13z M82.44,99.52
				c-0.2-0.35-0.99-2.13-5.38-2.13H64.25V76.68h0.95v19.77h11.71c0.89,0,1.66,0.05,2.33,0.15c2.36,0.38,3.35,1.32,3.81,1.98h3
				c0.44-0.67,1.4-1.6,3.74-1.98c0.66-0.1,1.42-0.15,2.31-0.15h11.75v-19.7h0.94v20.64H91.95c-4.38,0-5.11,1.8-5.27,2.13H82.44z
				 M84.01,96v1.01c-1.79-3.36-9.93-2.81-16.86-2.12v-19.2c3.74-0.03,7.41-0.54,10.28-0.54c3.64,0,6.15,0.55,6.58,2.67v17.26
				c-2.21-2.64-8.85-2.39-15.77-1.72v0.55C75.09,93.24,82.34,93.02,84.01,96z M69.51,88.43c0.82-0.01,1.68-0.04,2.36-0.04
				c0.88,0,1.63,0.02,2.35,0.04v-0.39h-0.38c-1.16,0-1.25-0.12-1.25-0.89v-3.33c0-0.91,0.14-0.97,0.91-0.97h0.72v-0.39
				c-0.75,0.01-1.55,0.04-2.35,0.04c-0.75,0-1.57-0.03-2.36-0.04v0.39h0.72c0.77,0,0.91,0.06,0.91,0.97v3.33
				c0,0.77-0.09,0.89-1.26,0.89h-0.37V88.43z M77.76,84.37c-0.9-0.54-1.53-1.32-1.53-2.32c0-0.86,0.63-2.4,2.66-2.4
				c1.62,0,2.32,1.02,2.32,1.93c0,0.95-0.34,1.52-1.7,2.14c1.32,0.67,1.9,1.38,1.9,2.41c0,1.42-1.12,2.47-2.83,2.47
				c-1.53,0-2.51-1.06-2.51-2.17C76.08,85.21,77.03,84.61,77.76,84.37z M80.04,86.75c0-0.75-0.35-1.24-1.92-2.19
				c-0.69,0.37-1.05,1.08-1.05,1.75c0,1.23,0.86,1.81,1.56,1.81C79.6,88.12,80.04,87.4,80.04,86.75z M79.23,83.53
				c0.6-0.47,1.01-0.96,1.01-1.81c0-0.98-0.66-1.6-1.42-1.6c-0.86,0-1.33,0.69-1.33,1.42C77.49,82.3,78.02,82.83,79.23,83.53z
				 M91.59,75.14c2.88,0,6.5,0.54,10.32,0.54v19.2c-6.94-0.69-15.08-1.24-16.87,2.12V96c1.63-3.03,8.91-2.76,15.81-2.1v-0.55
				c-6.96-0.67-13.62-0.95-15.81,1.72V77.81C85.47,75.71,87.97,75.15,91.59,75.14z M87.05,84.63h0.39l0.31-0.81h3.6l-3.51,7.2
				l0.66,0.18l4.38-8.62l-0.1-0.11h-5.38L87.05,84.63z M95.73,84.37c-0.9-0.54-1.53-1.32-1.53-2.32c0-0.86,0.62-2.4,2.66-2.4
				c1.62,0,2.33,1.02,2.33,1.93c0,0.95-0.34,1.52-1.7,2.14c1.32,0.67,1.91,1.38,1.91,2.41c0,1.42-1.12,2.47-2.83,2.47
				c-1.54,0-2.51-1.06-2.51-2.17C94.05,85.21,95.01,84.61,95.73,84.37z M98.02,86.75c0-0.75-0.35-1.24-1.92-2.19
				c-0.7,0.37-1.06,1.08-1.06,1.75c0,1.23,0.86,1.81,1.55,1.81C97.57,88.12,98.02,87.4,98.02,86.75z M97.19,83.53
				c0.61-0.47,1.01-0.96,1.01-1.81c0-0.98-0.65-1.6-1.41-1.6c-0.86,0-1.33,0.69-1.33,1.42C95.46,82.3,96,82.83,97.19,83.53z
				 M127.34,154.73l-42.83-34.91l-42.82,34.91c-22.1-25.66-21.94-55.27-21.88-67.49v-20.1h0.08l64.62,52.68l64.61-52.68h0.09l0,20.1
				C149.29,99.46,149.45,129.07,127.34,154.73z M47.11,135.96c9.11,0.01,16.52-7.42,16.54-16.6c0.02-9.18-7.36-16.64-16.47-16.66
				c-9.12-0.01-16.53,7.42-16.54,16.6C30.61,128.48,38,135.94,47.11,135.96z M57.81,112.47c0.04,0.5-0.21,1.34-0.41,1.56
				c-0.18,0.05-0.65,0.1-0.99,0.12c-0.22,0.01-0.28,0.04-0.41,0.26c-0.41,0.7-0.78,1.34-1.21,2.18c-0.1,0.97-0.1,1.92-0.17,3.08
				c-0.03,0.41,0.03,0.95-0.25,1.41c-0.36,0.46-0.75,0.79-1.07,1.01c-0.06,0.04-0.16,0.16,0.12,0.07c0.16-0.05,0.92-0.43,1.09-0.48
				c0.54-0.17,1.16-0.84,2.02-0.01c0.41,0.4,1.04,0.78,1.79,1.29c0.28,0.19,0.43,0.15,0.8,0.48c0.3,0.26,0.44,0.85,0.61,1.15
				c0.46,0.78,0.51,1.27,0.5,1.45c-0.29,0.16-1.37,0.17-1.8,0.04c-0.15-0.27-0.14-0.68-0.23-0.89c-0.15-0.39-0.29-0.57-0.49-0.71
				c-0.33-0.23-0.58-0.5-0.93-0.69c-0.83-0.46-0.93-0.58-1.55-0.28c-0.56,0.27-1.43,1.06-2.35,1.54c-0.72,0.35-2.69-0.01-3.24-0.5
				c0.18,0.54,1.29,1.15,2.12,1.53c-0.11,0.29-0.41,1.81-1.01,2.7c-0.05-0.21-0.18-0.38-0.36-0.38c-0.56,0-0.46,1.19-0.99,1.8
				c-0.03-0.19-0.16-0.39-0.39-0.39c-0.52,0-0.46,1.12-1.05,1.7c-0.06-0.25-0.2-0.42-0.44-0.42c-0.23,0-0.45,0.23-0.65,0.44
				c-0.7,0.76-1.04,1.19-1.71,1.9c-2.27-0.14-5.61-1.7-6.79-3.13c2.14-2.3,4.06-4.6,5.01-5.26c0.45-1.36,1.8-4.21,2.3-5.54
				c-0.06-0.13-0.13-0.25-0.2-0.38c-0.34,0.19-0.73,0.23-0.9,0.14c0.14-0.37,0.15-0.95-0.01-1.41c-0.24,0.14-0.58,0.21-0.83,0.12
				c0.15-0.44,0.18-0.96,0.03-1.39c0,0,0-0.01-0.01-0.01c-0.31,0.14-0.59,0.18-0.81,0.1c0.13-0.5,0.25-0.97,0.1-1.6
				c-0.02-0.05-0.03-0.09-0.05-0.14c-0.41,0.21-1.85,0.47-2.18,0.34c-0.21-0.16,1.03-1.42,2.06-2.46c-0.98,0.43-2.25,0.89-4.2,1.28
				c-1.11,0.22-3.44,0.63-5.09,0.34c-0.28-0.05-0.22-0.41,0.05-0.42c0.87,0,2.05-0.05,2.9-0.26c0.23-0.05,0.6-0.25-0.07-0.37
				c-0.7-0.12-1.99-0.34-2.64-0.55c-0.23-0.08-0.1-0.35,0.09-0.33c0.79,0.06,1.73,0.22,2.41,0.25c0.39,0.01,0.56-0.04,0.27-0.3
				c-0.18-0.15-0.74-0.51-1.3-0.84c-0.13-0.07-0.11-0.25,0.05-0.27c0.44-0.07,2.2,1.02,3.38,1.35c0.26,0.07,0.49,0.12,0.71,0.08
				c0.23-0.04,0.27-0.18,0.26-0.28c-0.05-0.28-1.21-0.83-1.78-1.21c-0.23-0.15,0.01-0.33,0.25-0.26c0.63,0.18,2.07,0.94,2.72,1.02
				c0.52,0.06,0.71-0.08,0.68-0.23c-0.06-0.35-2.05-1.28-2.52-1.63c-0.11-0.09,0.05-0.25,0.18-0.23c1.02,0.13,2.99,1.49,3.87,1.33
				c0.09-0.01,0.22-0.09,0.2-0.21c-0.07-0.39-1.72-1.25-2.13-1.53c-0.2-0.14,0.04-0.28,0.32-0.21c0.6,0.14,1.54,0.61,2.11,0.9
				c0.27,0.13,0.48,0.19,0.76,0.14c0.36-0.07,0.68-0.44,0.53-1.22c-0.15-0.8-0.89-1.11-1.41-1.25c-0.58-0.16-0.15-0.43,0.35-0.34
				c0.95,0.18,1.65,0.63,1.8,1.47c0.03,0.13,0.03,0.32,0.04,0.51c0.02,0.46,0.35,0.3,0.62-0.09c0.52-0.73,0.63-1.46,0.54-1.96
				c-0.15-0.86-1.37-1.2-1.37-1.41c0-0.07,0.08-0.13,0.14-0.14c0.47-0.08,1.74,0.47,1.93,1.49c0.1,0.55,0,0.84-0.1,1.37
				c-0.03,0.11,0.05,0.21,0.23,0.03c0.61-0.61,1.11-1.72,0.94-2.71c-0.19-1.06-1.28-1.43-1.31-1.61c-0.01-0.05,0.07-0.12,0.16-0.13
				c0.45-0.08,1.65,0.63,1.89,1.81c0.2,1.04-0.29,3.2-3.52,4.93c1.36-0.3,1.74-0.26,1.87-0.09c1.56-0.42,2.56-0.73,2.97-0.65
				c0.44,0.67-0.49,0.94-0.5,1.44c0.01,0.48,1.09-0.32,0.9,0.44c-0.33,0.6-0.75,0.64-1.23,0.83c-0.24,0.17-1.21,0.85-1.73,1.28
				c1.56,1.09,3.16,2.74,3.27,2.82c0.09,0.24,0.47,0.92,0.91,1.95c0.01,0.02,0.02,0.04,0.03,0.06c0.22-0.66,0.58-1.78,0.74-2.34
				c0.13-0.49,0.09-0.65,0.25-0.94c0.13-0.24,0.57-0.65,0.96-1.23c0.35-0.51,0.91-1.31,1.11-1.62c0.33-0.5,0.65-0.4,1.26-0.56
				C56.86,112.49,57.54,112.45,57.81,112.47z M45.55,112.54c0.07-0.07,0.2-0.19,0.31-0.25c0.25-0.14,0.61-0.22,0.84-0.26
				c0.11,0.17,0.06,0.46-0.13,0.67c-0.2,0.23-0.43,0.12-0.63,0.03c-0.15-0.07-0.26-0.06-0.32-0.07
				C45.55,112.67,45.5,112.59,45.55,112.54z M105.32,119.33c0.02-9.18,7.42-16.61,16.54-16.6c9.12,0.02,16.49,7.47,16.47,16.66
				c-0.01,9.18-7.42,16.61-16.53,16.6C112.68,135.97,105.3,128.32,105.32,119.33z M129.42,108.01c0.1,0.12,0.16,0.28,0.17,0.45
				c0.01,0.41-0.32,0.75-0.73,0.76c-0.41,0.01-0.75-0.31-0.76-0.72c-0.01-0.38,0.26-0.69,0.63-0.75l-0.85-1.31l-1.45,0.63
				c0.16,0.13,0.25,0.32,0.26,0.54c0,0.41-0.32,0.75-0.73,0.76c-0.41,0.01-0.75-0.31-0.76-0.72c-0.01-0.32,0.18-0.59,0.46-0.7
				c-0.44-0.46-1.37-1.16-2.27-1.46c0.7,1.25,1.07,2.81,1.05,4.1c0.93-0.06,3.49,0.73,4.46,1.46c0.79-1.17,1.97-2.28,3.29-2.74
				C131.56,108.08,130.33,107.88,129.42,108.01z M124.79,111.32c-0.11-0.01-0.22-0.02-0.33-0.04c-0.1-0.02-0.15-0.07-0.18-0.1
				c-0.03-0.03-0.13-0.15-0.38-0.17c-0.43-0.03-0.65,0.3-0.68,0.51c-0.02,0.15,0.02,0.31,0.11,0.42c0.08,0.1,0.2,0.16,0.33,0.17
				c0.09,0.01,0.18,0,0.28-0.04l0.01-0.01c0.18-0.1,0.27-0.25,0.33-0.41c0.03-0.07,0.23-0.15,0.47-0.16c0.05,0,0.09-0.03,0.09-0.07
				C124.85,111.36,124.83,111.32,124.79,111.32z M120.32,111.56c-0.09,0.16-0.08,0.32-0.05,0.45c0,0.01,0.06,0.09,0.07,0.1
				c-0.06,0.25-0.04,0.57,0.05,1.01c0.05,0.26,0.29,0.35,0.73,0.36c0,0.11,0.02,0.21,0.04,0.32c0,0.01,0,0.03,0.01,0.04
				c-0.26,0.07-0.51,0.11-0.73,0.1c-0.69-0.04-1.11-0.43-1.03-1.12c0.02-0.13,0.05-0.23,0.11-0.35c0.03-0.06,0-0.1-0.05-0.13
				c-0.24-0.09-0.95,0.49-1.06,1.3c-0.1,0.77,0.33,1.2,0.97,1.23c0.35,0.02,0.82-0.03,1.32-0.23c0.85-0.34,1.82-0.45,2.41,0.15
				c-0.45-0.08-1.6,0-1.94,0.07c-0.5,0.09-0.74,1.12-0.19,1.16c0.42,0.02,1.98-0.07,2.07-0.05c-0.16,0.68-1.16,1.53-2.14,1.74
				c-0.6-0.25-2.33-0.19-3.13,0.05c-0.99-1.13-1.72-3.2-1.8-3.89c-0.04-0.32-0.05-0.68,0.12-0.97c0.31-0.57,0.94-0.52,1.25-1
				c0.16-0.26,0.09-0.58,0.14-0.87c0.02-0.12,0.27-0.56-0.05-0.7c-0.13,0.17-0.36,0.3-0.65,0.22c-0.19-0.06-0.39-0.13-0.59-0.04
				c-0.35,0.15-0.41,0.58-0.68,0.86c-0.15,0.15-0.33,0.08-0.29-0.16c0.07-0.4,0.26-0.77,0.2-1.17c-0.07-0.41-0.36-0.72-0.78-0.95
				c-0.17-0.1-0.38-0.27-0.58-0.32c-0.2-0.05-0.36,0.02-0.37,0.11c0.1,0.07,0.18,0.18,0.18,0.34c0.01,0.36-0.39,0.56-0.39,0.91
				c-0.01,0.53,0.36,1,0.39,1.28c0.03,0.21-0.15,0.21-0.28,0.15c-0.27-0.15-0.7-0.38-1.1-0.39c-0.32,0-0.54,0.25-0.82,0.37
				c-0.13,0.05-0.64,0.04-0.54,0.29c0.29,0.06,0.49,0.24,0.59,0.5c0.08,0.2,0.12,0.36,0.31,0.5c0.31,0.22,0.98,0.17,1.3,0.22
				c0.21,0.04,0.45,0.16,0.51,0.59c0.04,0.3-0.06,0.63-0.21,0.87c-0.25,0.44-0.38,0.9-0.26,1.32c0.11-0.16,0.24-0.23,0.37-0.23
				c0.28,0,0.36,0.32,0.16,0.75c-0.18,0.39-0.3,0.84-0.12,1.35c0.09-0.17,0.23-0.28,0.39-0.28c0.25,0,0.39,0.27,0.21,0.75
				c-0.16,0.45-0.21,0.88-0.03,1.3c0.07-0.18,0.22-0.31,0.4-0.31c0.26,0,0.38,0.27,0.47,0.5c0.31,0.76,0.82,1.16,2.05,1.16
				c-0.43,0.81-4.01,0.29-5.46,0.12c-0.32-0.04-0.49-0.12-0.59-0.38c-0.23-0.57,0.31-1.04,0-1.65c-0.15-0.3-0.39-0.37-0.65-0.54
				c-0.12-0.07-0.44-0.5-0.66-0.31c0.09,0.22,0.07,0.42-0.18,0.64c-0.16,0.15-0.33,0.27-0.36,0.52c-0.05,0.4,0.28,0.79,0.39,1.14
				c0.09,0.26-0.07,0.36-0.28,0.2c-0.34-0.26-0.85-0.88-1.38-0.88c-0.36,0-0.45,0.21-0.74,0.35c-0.13,0.06-0.69,0.11-0.64,0.39
				c0.24,0.04,0.46,0.18,0.52,0.51c0.05,0.22,0.1,0.44,0.29,0.58c0.48,0.37,1.24,0.21,1.68,0.3c0.18,0.03,0.21,0.19,0.04,0.29
				c-0.38,0.22-0.91,0.37-1.11,0.75c-0.15,0.31-0.06,0.66-0.06,0.96c0,0.13-0.18,0.56,0.12,0.64c0.15-0.2,0.35-0.35,0.7-0.3
				c0.22,0.03,0.41,0.13,0.62,0.02c0.38-0.19,0.41-0.53,0.6-0.85c0.1-0.16,0.27-0.33,0.53-0.33c0.16,0,0.31,0.04,0.44,0.15
				c0.29,0.25,0.26,0.86,1.14,0.99c-0.05-0.1-0.07-0.21-0.07-0.31c0-0.18,0.11-0.32,0.28-0.32c0.21,0,0.34,0.1,0.52,0.41
				c0.23,0.4,0.48,0.52,0.88,0.56c-0.05-0.1-0.09-0.23-0.09-0.34c0-0.19,0.11-0.3,0.28-0.3c0.1,0,0.29,0.04,0.45,0.31
				c0.25,0.43,0.44,0.64,0.88,0.69c-0.13-0.25-0.02-0.59,0.31-0.59c0.34,0,1.19,0.29,1.81,0.55c-0.02,1.61,1.02,3.34,2.58,4.4
				c-0.05-0.31,0.11-0.48,0.33-0.48c0.63,0,0.96,1.49,2.36,2.16c-0.07-0.28,0.08-0.47,0.29-0.47c0.17,0,0.4,0.11,0.52,0.17
				c1.26,0.68,2.61,1.55,3.26,2.12c1.32-0.4,3.46-1.69,4.87-3.13c-0.87-0.26-3.26-2.06-4.09-2.92c-1.5-1.54-1.9-3.16-1.9-4.35
				c0-0.4,0.06-0.78,0.15-1.07c0.44,0.26,1.06,0.22,1.44-0.13c-0.68-0.54-0.58-1.59-0.36-1.97c0.38,0.31,1.07,0.22,1.42-0.09
				c-0.52-0.33-0.8-1.17-0.53-1.9c0.28,0.3,0.97,0.32,1.38-0.02c-0.55-0.46-0.83-1.19-0.68-2.05c0.26,0.35,0.74,0.4,1.09,0.25
				c-0.21-0.46-0.23-1.23-0.3-1.74c-0.09-0.7-0.29-1.49-0.52-1.91c-0.75-0.65-3.05-1.57-4.48-1.57c-0.19,0-0.38,0.03-0.54,0.06
				c-0.4,0.09-0.68,0.23-0.7,0.3c-0.21,0.33-0.74,0.4-1.22,0.53C121.57,111.11,120.66,111.35,120.32,111.56z M122.51,122.73h-0.12
				c-0.09,0.97-0.63,2.46-0.98,2.99l0.63-0.49l0.4,0.49l0.41-0.49l0.58,0.49C123.12,125.15,122.6,123.7,122.51,122.73z
				 M133.53,127.44c0.13-0.19,0.3-0.47,0.3-0.47c-0.61-0.93-1.08-1.95-0.99-3.13c0.09-1.28,0.81-1.66,1.36-1.64
				c0.5,0.02,0.85,0.41,0.88,0.97c0.43-0.36,0.61-0.78,0.65-1.21c0.02-0.33-0.14-0.84-0.7-0.98c1.01-0.94,0.91-2.82-0.12-3.54
				c0.15,1.35-0.86,2.28-1.77,3.15c-1.22,1.17-1.37,2.51-1.16,3.89c-0.72-1.39-1.06-2.71-0.96-4c0.11-1.45,0.84-2.95,1.9-2.88
				c0.34,0.02,0.7,0.2,0.84,0.5c0.5-0.85,0.15-1.79-0.67-1.86c0.83-2-0.52-4.01-1.63-4.45c0.29,0.6,0.43,1.21,0.38,1.9
				c-0.13,1.93-1.82,3.46-1.99,6.33c-0.18,3.1,1.54,5.79,3.39,7.85C133.21,127.88,133.37,127.68,133.53,127.44z M126.25,126.98
				h-0.12c-0.1,0.97-0.64,2.46-0.98,2.99l0.62-0.49l0.4,0.49l0.41-0.49l0.58,0.49C126.86,129.41,126.34,127.95,126.25,126.98z
				 M123.38,114.43c0.1-0.19,0.15-0.46,0.15-0.61c0-0.11-0.02-0.26-0.13-0.38c-0.12-0.12-0.41-0.18-0.73-0.18
				c-0.3,0-0.63,0.05-0.81,0.17c-0.02,0.08-0.06,0.2-0.11,0.31C122.32,113.75,122.93,113.89,123.38,114.43z"/>
		</g>
	</g>
</g>
</svg>
